<?xml version="1.0" encoding="UTF-8"?>
<svg width="63px" height="52px" viewBox="0 0 63 52" version="1.1" xmlns="http://www.w3.org/2000/svg" xmlns:xlink="http://www.w3.org/1999/xlink">
    <!-- Generator: sketchtool 50.2 (55047) - http://www.bohemiancoding.com/sketch -->
    <title>73B5AE5E-4E3D-46AE-B8CC-77EDEE21D228</title>
    <desc>Created with sketchtool.</desc>
    <defs></defs>
    <g id="Symbols" stroke="none" stroke-width="1" fill="none" fill-rule="evenodd">
        <g id="newsletter-sign-up-icon" fill-rule="nonzero">
            <g id="mail">
                <path d="M54.8165172,42.2445833 L61.8583966,38.7324167 L42.7009655,31.6929167 L49.7591379,50.80075 L53.2806207,43.7764167 L60.663569,51.1398333 C60.8753793,51.3510833 61.1534483,51.45725 61.4315172,51.45725 C61.7095862,51.45725 61.9876552,51.3510833 62.1994655,51.1398333 C62.6241724,50.71625 62.6241724,50.0315833 62.1994655,49.608 L54.8165172,42.2445833 Z M46.368,35.35025 L56.3958621,39.03575 L52.1737759,41.1406667 L50.0632759,45.3526667 L46.368,35.35025 Z" id="Shape" fill="#3FAE2A"></path>
                <path d="M62.994569,1.60008333 C62.9923966,1.47983333 62.973931,1.35958333 62.9293966,1.24258333 C62.9261379,1.235 62.9207069,1.22958333 62.9185345,1.222 C62.9065862,1.19275 62.8870345,1.16891667 62.8729138,1.14075 C62.8283793,1.053 62.7762414,0.972833333 62.7121552,0.902416667 C62.6839138,0.871 62.6535,0.846083333 62.622,0.817916667 C62.5546552,0.759416667 62.4818793,0.710666667 62.4025862,0.670583333 C62.3667414,0.652166667 62.3341552,0.632666667 62.2961379,0.618583333 C62.1744828,0.573083333 62.0484828,0.541666667 61.9137931,0.541666667 L1.0862069,0.541666667 C0.951517241,0.541666667 0.825517241,0.573083333 0.704948276,0.618583333 C0.666931034,0.632666667 0.634344828,0.652166667 0.5985,0.670583333 C0.519206897,0.710666667 0.446431034,0.759416667 0.378,0.817916667 C0.3465,0.846083333 0.317172414,0.871 0.288931034,0.902416667 C0.223758621,0.972833333 0.17162069,1.05408333 0.127086207,1.14183333 C0.112965517,1.16891667 0.0934137931,1.19275 0.0814655172,1.222 C0.0782068966,1.2285 0.0727758621,1.235 0.0695172414,1.2415 C0.0249827586,1.3585 0.00760344828,1.47875 0.00434482759,1.599 C0.00434482759,1.60875 0,1.61633333 0,1.625 L0,43.875 C0,43.87825 0.00217241379,43.8815 0.00217241379,43.88475 C0.00325862069,44.0006667 0.020637931,44.1165833 0.0597413793,44.2303333 C0.0640862069,44.2433333 0.073862069,44.2541667 0.0792931034,44.2671667 C0.0934137931,44.304 0.116224138,44.3354167 0.134689655,44.3700833 C0.177051724,44.45025 0.223758621,44.5239167 0.2835,44.59 C0.313913793,44.6235833 0.344327586,44.6528333 0.379086207,44.6820833 C0.444258621,44.7395 0.515948276,44.7860833 0.593068966,44.8261667 C0.63,44.8456667 0.664758621,44.86625 0.703862069,44.8814167 C0.824431034,44.9269167 0.951517241,44.9583333 1.0862069,44.9583333 L39.1034483,44.9583333 C39.7041207,44.9583333 40.1896552,44.4740833 40.1896552,43.875 C40.1896552,43.2759167 39.7041207,42.7916667 39.1034483,42.7916667 L4.21339655,42.7916667 C9.15346552,38.8873333 20.2903448,30.0289167 26.0124828,25.02175 L27.5559828,26.3813333 C28.6443621,27.3498333 30.0727241,27.8340833 31.5021724,27.8340833 C32.9283621,27.8340833 34.3545517,27.3509167 35.4396724,26.3856667 L60.8275862,4.02783333 L60.8275862,34.125 C60.8275862,34.7240833 61.3131207,35.2083333 61.9137931,35.2083333 C62.5144655,35.2083333 63,34.7240833 63,34.125 L63,1.625 C63,1.61633333 62.9956552,1.60875 62.994569,1.60008333 Z M2.17241379,41.6400833 L2.17241379,4.02783333 L24.3712241,23.5776667 C18.3362586,28.8350833 6.61065517,38.1376667 2.17241379,41.6400833 Z M33.9971897,24.765 C32.6209655,25.9913333 30.3790345,25.9913333 28.9984655,24.7606667 L26.8488621,22.8680833 C26.843431,22.8605 26.8412586,22.8518333 26.8358276,22.8453333 C26.811931,22.81825 26.7782586,22.8074167 26.7521897,22.7825 L3.95813793,2.70833333 L59.0429483,2.70833333 L33.9971897,24.765 Z" id="Shape" fill="#7E7E7F"></path>
            </g>
        </g>
    </g>
</svg>